# AST/ASF file generated using VICON BodyLanguage
# -----------------------------------------------
:version 1.10
:name VICON
:units
  mass 1.0
  length 0.45
  angle deg
:documentation
   .ast/.asf automatically generated from VICON data using
   VICON BodyBuilder and BodyLanguage model FoxedUp or BRILLIANT.MOD
:root
   order TX TY TZ RX RY RZ
   axis XYZ
   position 0 0 0  
   orientation 0 0 0 
:bonedata
  begin
     id 1 
     name lhipjoint
     direction 0.693937 -0.600361 0.397515 
     length 2.37164 
     axis 0 0 0  XYZ
  end
  begin
     id 2 
     name lfemur
     direction 0.34202 -0.939693 0  
     length 6.18497  
     axis 0 0 20  XYZ
    dof rx ry rz
    limits (-160.0 20.0)
           (-70.0 70.0)
           (-60.0 70.0)
  end
  begin
     id 3 
     name ltibia
     direction 0.34202 -0.939693 0   
     length 6.91601   
     axis 0 0 20   XYZ
    dof rx
    limits (-10.0 170.0)
  end
  begin
     id 4 
     name lfoot
     direction 0.0978718 -0.2689 0.958182   
     length 1.81453   
     axis -90 7.62852e-016 20   XYZ
    dof rx rz
    limits (-45.0 90.0)
           (-70.0 20.0)
  end
  begin
     id 5 
     name ltoes
     direction 1.53569e-011 -4.21951e-011 1   
     length 0.912052   
     axis -90 7.62852e-016 20   XYZ
    dof rx
    limits (-90.0 20.0)
  end
  begin
     id 6 
     name rhipjoint
     direction -0.643996 -0.637876 0.422354   
     length 2.23216  
     axis 0 0 0  XYZ 
  end
  begin
     id 7 
     name rfemur
     direction -0.34202 -0.939693 0   
     length 6.15404   
     axis 0 0 -20   XYZ
    dof rx ry rz
    limits (-160.0 20.0)
           (-70.0 70.0)
           (-70.0 60.0)
  end
  begin
     id 8 
     name rtibia
     direction -0.34202 -0.939693 0   
     length 6.86744   
     axis 0 0 -20   XYZ
    dof rx
    limits (-10.0 170.0)
 end
 begin
     id 9 
     name rfoot
     direction -0.118701 -0.326127 0.937844   
     length 1.9243  
     axis -90 -7.62852e-016 -20   XYZ
    dof rx rz
    limits (-45.0 90.0)
           (-20.0 70.0)
  end
  begin
     id 10 
     name rtoes
     direction -1.5356e-011 -4.2181e-011 1   
     length 0.958865   
     axis -90 -7.62852e-016 -20   XYZ
    dof rx
    limits (-90.0 20.0)
  end
  begin
     id 11 
     name lowerback
     direction 0.0310826 0.968686 -0.246334   
     length 2.00021   
     axis 0 0 0   XYZ
    dof rx ry rz
    limits (-20.0 45.0)
           (-30.0 30.0)
           (-30.0 30.0)
  end
  begin
     id 12 
     name upperback
     direction -0.0152834 0.999474 -0.0286152   
     length 2.03728   
     axis 0 0 0   XYZ
    dof rx ry rz
    limits (-20.0 45.0)
           (-30.0 30.0)
           (-30.0 30.0)
  end
  begin
     id 13 
     name thorax
     direction -0.0323701 0.996236 0.0804149   
     length 2.16   
     axis 0 0 0   XYZ
    dof rx ry rz
    limits (-20.0 45.0)
           (-30.0 30.0)
           (-30.0 30.0)
  end
  begin
     id 14 
     name lowerneck
     direction 0.0307935 0.982251 0.185027   
     length 1.43558   
     axis 0 0 0   XYZ
    dof rx ry rz
    limits (-20.0 45.0)
           (-30.0 30.0)
           (-30.0 30.0)
  end
  begin
     id 15 
     name upperneck
     direction -0.0927153 0.994775 0.0427454   
     length 1.44603   
     axis 0 0 0   XYZ
    dof rx ry rz
    limits (-20.0 45.0)
           (-30.0 30.0)
           (-30.0 30.0)
  end
  begin
     id 16
     name head
     direction -0.0341265 0.999406 -0.00472033  
     length 1.45931  
     axis 0 0 0   XYZ
    dof rx ry rz
    limits (-20.0 45.0)
           (-30.0 30.0)
           (-30.0 30.0)
  end
  begin
     id 17 
     name lclavicle
     direction 0.820755 0.555306 -0.134151  
     length 2.66075  
     axis 0 0 0   XYZ
    dof ry rz
    limits (-20.0 10.0)
           (0.0 20.0)
  end
  begin
     id 18 
     name lhumerus
     direction 1 -4.48971e-011 5.24853e-027   
     length 5.0546   
     axis -180 -30 -90   XYZ
    dof rx ry rz
    limits (-60.0 90.0)
           (-90.0 90.0)
           (-90.0 90.0)
  end
  begin
     id 19
     name lradius
     direction 1 -4.48971e-011 2.76575e-028   
     length 3.39013   
     axis -180 -30 -90   XYZ
    dof rx
    limits (-10.0 170.0)
  end
  begin
     id 20
     name lwrist
     direction 1 -4.48939e-011 -2.27826e-027   
     length 1.69507   
     axis 2.17013e-015 90 90   XYZ
    dof ry
    limits (-180.0 0.0)
 end
  begin
     id 21 
     name lhand
     direction 1 -4.49009e-011 -4.55652e-027   
     length 0.572425   
     axis 2.90745e-015 90 90   XYZ
    dof rx rz
    limits (-90.0 90.0)
           (-45.0 45.0)
  end
  begin
     id 22 
     name lfingers
     direction 1 -4.48955e-011 -9.11303e-027   
     length 0.461504   
     axis 5.81489e-015 90 90   XYZ
    dof rx
    limits (0.0 90.0)
  end
  begin
     id 23
     name lthumb
     direction 0.707107 -6.34929e-011 0.707107   
     length 0.66263   
     axis -90 45 2.85299e-015   XYZ
    dof rx rz
    limits (-45.0 45.0)
           (-45.0 45.0)
  end
  begin
     id 24 
     name rclavicle
     direction -0.754477 0.632921 -0.173712   
     length 2.73081  
     axis 0 0 0   XYZ 
    dof ry rz
    limits (-10.0 20.0)
           (-20.0 0.0)
  end
  begin
     id 25 
     name rhumerus
     direction -1 -4.48969e-011 5.1496e-027  
     length 5.0701   
     axis -180 30 90   XYZ
    dof rx ry rz
    limits (-90.0 60.0)
           (-90.0 90.0)
           (-90.0 90.0)
  end
  begin
     id 26 
     name rradius
     direction -1 -4.48967e-011 -7.15624e-028   
     length 3.14957   
     axis -180 30 90   XYZ
    dof rx
    limits (-10.0 170.0)
  end
  begin
     id 27 
     name rwrist
     direction -1 -4.48938e-011 -2.27826e-027   
     length 1.57479   
     axis 2.17013e-015 -90 -90   XYZ
    dof ry
    limits (-180.0 0.0)
  end
  begin
     id 28
     name rhand
     direction -1 -4.49008e-011 -4.55652e-027   
     length 0.718191   
     axis 2.90745e-015 -90 -90   XYZ
    dof rx rz
    limits (-90.0 90.0)
           (-45.0 45.0)
  end
  begin
     id 29
     name rfingers
     direction -1 -4.48953e-011 -9.11303e-027   
     length 0.579024   
     axis 5.81489e-015 -90 -90   XYZ
    dof rx
    limits (0.0 90.0)
  end
  begin
     id 30
     name rthumb
     direction -0.707107 -6.34937e-011 0.707107   
     length 0.831366   
     axis -90 -45 -2.85299e-015   XYZ
    dof rx rz
    limits (-45.0 45.0)
           (-45.0 45.0)
  end
:hierarchy
  begin
    root lhipjoint rhipjoint lowerback
    lhipjoint lfemur
    lfemur ltibia
    ltibia lfoot
    lfoot ltoes
    rhipjoint rfemur
    rfemur rtibia
    rtibia rfoot
    rfoot rtoes
    lowerback upperback
    upperback thorax
    thorax lowerneck lclavicle rclavicle
    lowerneck upperneck
    upperneck head
    lclavicle lhumerus
    lhumerus lradius
    lradius lwrist
    lwrist lhand lthumb
    lhand lfingers
    rclavicle rhumerus
    rhumerus rradius
    rradius rwrist
    rwrist rhand rthumb
    rhand rfingers
  end

#!OML:ASF H:\Male1\Project 1\Capture day 1\Session 1\Male1.ASF
:FULLY-SPECIFIED
:DEGREES
172
root 8.39796 15.0201 4.22993 183.737 6.38167 -178.065
lowerback 18.1937 0.375686 0.534333
upperback 5.17422 1.30763 -1.15657
thorax -4.59132 0.972199 -1.84066
lowerneck -5.58406 7.20256 11.255
upperneck -6.39165 9.13669 -11.7565
head 0.101311 4.6135 -5.12735
rclavicle -1.72943e-014 2.38542e-014
rhumerus -21.8746 -1.31643 -72.0324
rradius 132.216
rwrist -8.54889
rhand -35.727 38.2459
rfingers 7.12502
rthumb -8.84638 8.45132
lclavicle -1.72943e-014 2.38542e-014
lhumerus -22.2992 7.76624 69.6289
lradius 132.031
lwrist 0.158619
lhand -45.2505 -27.8189
lfingers 7.12502
lthumb -18.0247 1.3659
rfemur -22.3585 2.18638 20.5598
rtibia 41.4669
rfoot -23.1859 -23.1962
rtoes -28.3122
lfemur -22.1814 -2.9416 -12.3386
ltibia 41.9769
lfoot -21.0117 16.1399
ltoes -22.0826
173
root 8.39549 15.0288 4.23291 183.695 6.36521 -178.118
lowerback 18.1053 0.38289 0.483074
upperback 5.1457 1.2999 -1.15739
thorax -4.57618 0.965382 -1.80868
lowerneck -5.61915 7.2039 11.174
upperneck -6.33137 9.14133 -11.6692
head 0.116326 4.61419 -5.08499
rclavicle 1.43125e-014 -7.95139e-016
rhumerus -21.9735 -1.50158 -71.7995
rradius 132.174
rwrist -8.62345
rhand -35.6769 38.1667
rfingers 7.12502
rthumb -8.798 8.37005
lclavicle 1.43125e-014 -7.95139e-016
lhumerus -22.4861 7.75275 69.4431
lradius 131.986
lwrist 0.0292602
lhand -45.2827 -27.9424
lfingers 7.12502
lthumb -18.0557 1.2395
rfemur -22.166 2.1519 20.4962
rtibia 41.1723
rfoot -22.9781 -23.2856
rtoes -28.7811
lfemur -22.0172 -3.03111 -12.4147
ltibia 41.7303
lfoot -20.9032 16.208
ltoes -22.1206
174
root 8.39329 15.0364 4.237 183.652 6.33616 -178.172
lowerback 18.0321 0.391324 0.429901
upperback 5.12327 1.29524 -1.16141
thorax -4.56243 0.960863 -1.78005
lowerneck -5.66024 7.19414 11.0521
upperneck -6.28329 9.13373 -11.5152
head 0.121555 4.60932 -5.01687
rclavicle 3.71727e-014 -1.74931e-014
rhumerus -22.0728 -1.70405 -71.5676
rradius 132.133
rwrist -8.68326
rhand -35.6852 38.0981
rfingers 7.12502
rthumb -8.80602 8.3018
lclavicle 3.71727e-014 -1.74931e-014
lhumerus -22.6458 7.72629 69.2198
lradius 131.937
lwrist -0.0410332
lhand -45.301 -28.1143
lfingers 7.12502
lthumb -18.0733 1.06603
rfemur -21.9972 2.09676 20.432
rtibia 40.9211
rfoot -22.8252 -23.3295
rtoes -29.092
lfemur -21.8724 -3.13687 -12.491
ltibia 41.5084
lfoot -20.79 16.2926
ltoes -22.2154
175
root 8.39154 15.0426 4.24216 183.601 6.29113 -178.199
lowerback 17.9926 0.394191 0.393428
upperback 5.10411 1.28837 -1.15789
thorax -4.56288 0.95578 -1.75335
lowerneck -5.71229 7.17197 10.8975
upperneck -6.2389 9.11125 -11.3128
head 0.121566 4.59727 -4.92961
rclavicle 6.55989e-015 9.14409e-015
rhumerus -22.182 -1.90777 -71.3642
rradius 132.1
rwrist -8.7113
rhand -35.7598 38.0626
rfingers 7.12502
rthumb -8.87799 8.26941
lclavicle 6.55989e-015 9.14409e-015
lhumerus -22.7864 7.7012 68.9473
lradius 131.878
lwrist -0.0523368
lhand -45.2854 -28.3194
lfingers 7.12502
lthumb -18.0583 0.862299
rfemur -21.8424 2.0374 20.3994
rtibia 40.7137
rfoot -22.7085 -23.3555
rtoes -29.3129
lfemur -21.7433 -3.24128 -12.5337
ltibia 41.3193
lfoot -20.6908 16.3602
ltoes -22.321
176
root 8.38973 15.047 4.24851 183.546 6.23686 -178.208
lowerback 17.9855 0.392487 0.365212
upperback 5.08591 1.27844 -1.14958
thorax -4.57953 0.949549 -1.7265
lowerneck -5.75216 7.14326 10.729
upperneck -6.22107 9.08211 -11.0977
head 0.109886 4.58314 -4.83789
rclavicle -7.35503e-015 7.15625e-015
rhumerus -22.3019 -2.12253 -71.1811
rradius 132.075
rwrist -8.71967
rhand -35.8719 38.0524
rfingers 7.12502
rthumb -8.98621 8.26383
lclavicle -7.35503e-015 7.15625e-015
lhumerus -22.913 7.67974 68.627
lradius 131.807
lwrist -0.0259872
lhand -45.2298 -28.5266
lfingers 7.12502
lthumb -18.0048 0.659995
rfemur -21.7091 1.98739 20.3834
rtibia 40.5497
rfoot -22.6183 -23.3741
rtoes -29.4822
lfemur -21.6375 -3.32609 -12.5542
ltibia 41.1714
lfoot -20.6284 16.3804
ltoes -22.3606
177
root 8.38718 15.0496 4.25609 183.489 6.1804 -178.21
lowerback 18.0087 0.387218 0.344783
upperback 5.06757 1.2662 -1.14089
thorax -4.61229 0.942459 -1.70403
lowerneck -5.79119 7.12959 10.6405
upperneck -6.19394 9.06784 -10.9669
head 0.110969 4.57538 -4.78323
rclavicle 1.80894e-014 -8.34896e-015
rhumerus -22.4337 -2.35891 -70.9905
rradius 132.054
rwrist -8.73709
rhand -35.9855 38.051
rfingers 7.12502
rthumb -9.09576 8.26711
lclavicle 1.80894e-014 -8.34896e-015
lhumerus -23.0338 7.66035 68.2671
lradius 131.728
lwrist 0.000963
lhand -45.1562 -28.7257
lfingers 7.12502
lthumb -17.934 0.467417
rfemur -21.6015 1.94859 20.3715
rtibia 40.428
rfoot -22.5403 -23.3944
rtoes -29.6449
lfemur -21.5595 -3.38029 -12.5643
ltibia 41.0712
lfoot -20.6077 16.3446
ltoes -22.303
